<svg width="40" height="40" viewBox="0 0 40 40" fill="none" xmlns="http://www.w3.org/2000/svg">
<path d="M20.5654 6.8335C12.9823 6.8335 6.83325 12.9815 6.83325 20.5656C6.83325 26.6329 10.7679 31.7803 16.2242 33.5961C16.9104 33.7232 17.1624 33.2982 17.1624 32.9355C17.1624 32.6081 17.1496 31.5262 17.1438 30.3788C13.3234 31.2095 12.5173 28.7586 12.5173 28.7586C11.8926 27.1713 10.9926 26.7494 10.9926 26.7494C9.74672 25.897 11.0865 25.9145 11.0865 25.9145C12.4655 26.0114 13.1916 27.3297 13.1916 27.3297C14.4163 29.429 16.404 28.822 17.1876 28.4713C17.3108 27.5836 17.6668 26.9779 18.0594 26.635C15.0094 26.2877 11.803 25.1102 11.803 19.8485C11.803 18.3493 12.3395 17.1242 13.218 16.1626C13.0754 15.8167 12.6054 14.42 13.351 12.5285C13.351 12.5285 14.5041 12.1594 17.1283 13.9361C18.2236 13.6318 19.3984 13.4793 20.5654 13.4741C21.7324 13.4793 22.908 13.6318 24.0055 13.9361C26.6266 12.1594 27.7781 12.5285 27.7781 12.5285C28.5255 14.42 28.0553 15.8167 27.9127 16.1626C28.7931 17.1242 29.3259 18.3492 29.3259 19.8485C29.3259 25.1227 26.1135 26.2841 23.0557 26.624C23.5482 27.0502 23.9871 27.8859 23.9871 29.167C23.9871 31.0043 23.9711 32.4831 23.9711 32.9355C23.9711 33.3009 24.2183 33.7291 24.9145 33.5943C30.3677 31.7764 34.2974 26.6309 34.2974 20.5656C34.2974 12.9815 28.1492 6.8335 20.5654 6.8335Z" fill="#9BA8DE"/>
<path d="M11.9777 26.3952C11.9475 26.4634 11.84 26.4838 11.7423 26.4371C11.6427 26.3923 11.5867 26.2993 11.619 26.2308C11.6486 26.1605 11.7561 26.1409 11.8555 26.1881C11.9554 26.2328 12.0122 26.3267 11.9777 26.3952ZM12.6531 26.9979C12.5877 27.0586 12.4596 27.0304 12.3727 26.9345C12.2829 26.8387 12.2661 26.7108 12.3325 26.6491C12.4001 26.5884 12.5242 26.6167 12.6143 26.7126C12.7041 26.8094 12.7215 26.9366 12.653 26.998M13.1166 27.769C13.0324 27.8275 12.8947 27.7727 12.8097 27.6506C12.7256 27.5285 12.7256 27.3821 12.8116 27.3234C12.8969 27.2647 13.0324 27.3174 13.1185 27.4386C13.2025 27.5628 13.2025 27.7092 13.1165 27.7691M13.9002 28.6622C13.8249 28.7451 13.6647 28.7229 13.5473 28.6096C13.4273 28.4989 13.3938 28.3418 13.4693 28.2587C13.5454 28.1756 13.7067 28.199 13.8249 28.3113C13.9441 28.4218 13.9804 28.5801 13.9002 28.6622ZM14.913 28.9637C14.8799 29.0712 14.7255 29.1201 14.57 29.0744C14.4147 29.0274 14.313 28.9014 14.3443 28.7927C14.3767 28.6845 14.5317 28.6335 14.6884 28.6824C14.8435 28.7293 14.9453 28.8543 14.913 28.9637ZM16.0658 29.0916C16.0697 29.2049 15.9377 29.2988 15.7745 29.3008C15.6102 29.3044 15.4774 29.2127 15.4757 29.1014C15.4757 28.987 15.6046 28.8939 15.7688 28.8912C15.932 28.888 16.0658 28.979 16.0658 29.0916ZM17.1981 29.0482C17.2177 29.1587 17.1042 29.2722 16.9421 29.3023C16.7827 29.3314 16.6352 29.2632 16.6148 29.1537C16.595 29.0404 16.7107 28.927 16.8698 28.8976C17.0322 28.8694 17.1775 28.9358 17.1981 29.0482Z" fill="#9BA8DE"/>
</svg>
