<svg width="40" height="40" viewBox="0 0 40 40" fill="none" xmlns="http://www.w3.org/2000/svg">
<path fill-rule="evenodd" clip-rule="evenodd" d="M24.8003 8.80029H15.2003C11.6657 8.80029 8.80029 11.6657 8.80029 15.2003V24.8003C8.80029 28.3349 11.6657 31.2003 15.2003 31.2003H24.8003C28.3349 31.2003 31.2003 28.3349 31.2003 24.8003V15.2003C31.2003 11.6657 28.3349 8.80029 24.8003 8.80029Z" stroke="#9BA8DE" stroke-width="2.40001" stroke-linecap="round" stroke-linejoin="round"/>
<path fill-rule="evenodd" clip-rule="evenodd" d="M20 24.8C17.3489 24.8 15.2 22.651 15.2 20C15.2 17.3489 17.3489 15.2 20 15.2C22.651 15.2 24.8 17.3489 24.8 20C24.8 21.2729 24.2942 22.4939 23.394 23.394C22.4939 24.2942 21.2729 24.8 20 24.8Z" stroke="#9BA8DE" stroke-width="2.40001" stroke-linecap="round" stroke-linejoin="round"/>
<path d="M26.3993 11.9999C25.5157 11.9999 24.7993 12.7163 24.7993 13.5999C24.7993 14.4836 25.5157 15.2 26.3993 15.2C27.283 15.2 27.9993 14.4836 27.9993 13.5999C27.9993 12.7163 27.283 11.9999 26.3993 11.9999Z" fill="#9BA8DE"/>
<path d="M26.4001 12.7999C25.9583 12.7999 25.6001 13.1581 25.6001 13.5999C25.6001 14.0417 25.9583 14.3999 26.4001 14.3999C26.8419 14.3999 27.2001 14.0417 27.2001 13.5999C27.2001 13.1581 26.8419 12.7999 26.4001 12.7999Z" stroke="#9BA8DE" stroke-width="1.6" stroke-linecap="round"/>
</svg>
