<svg width="40" height="40" viewBox="0 0 40 40" fill="none" xmlns="http://www.w3.org/2000/svg">
<path d="M6.87524 10.2739V29.7277C6.87524 31.564 8.32025 33.009 10.1565 33.009H29.6103C30.5091 33.009 31.3678 32.579 31.9153 32.0327C32.5016 31.4465 32.8916 30.704 32.8916 29.7277V10.2739C32.8916 8.43768 31.4466 6.99268 29.6103 6.99268H10.1565C9.18025 6.99268 8.43775 7.38393 7.8515 7.96893C7.304 8.51643 6.87524 9.37518 6.87524 10.2739ZM10.3915 12.8514C10.3915 11.6014 11.4078 10.5077 12.6578 10.5077C13.9465 10.5077 15.0015 11.6014 15.0015 12.8514C15.0015 14.1402 13.9465 15.1564 12.6578 15.1564C11.4078 15.1564 10.3915 14.1402 10.3915 12.8514ZM16.6803 28.9065V16.9927C16.6803 16.7189 16.954 16.4852 17.149 16.4852H20.469C20.9378 16.4852 20.9378 17.0327 20.9378 17.384C21.8753 16.4464 23.0865 16.2114 24.3365 16.2114C27.384 16.2114 29.3365 17.6565 29.3365 20.8602V28.9077C29.3365 29.1815 29.1015 29.4152 28.8678 29.4152H25.4303C25.1565 29.4152 24.9615 29.1415 24.9615 28.9077V21.6415C24.9615 20.4302 24.6103 19.7665 23.2428 19.7665C21.524 19.7665 21.094 20.899 21.094 22.4227V28.9077C21.094 29.1815 20.8203 29.4152 20.5465 29.4152H17.1478C16.9528 29.4152 16.679 29.1415 16.679 28.9077L16.6803 28.9065ZM10.469 28.9065V16.9927C10.469 16.7189 10.7428 16.4852 10.9378 16.4852H14.3365C14.649 16.4852 14.844 16.6802 14.844 16.9927V28.9065C14.844 29.1802 14.609 29.414 14.3365 29.414H10.9378C10.7028 29.414 10.469 29.1402 10.469 28.9065Z" fill="#9BA8DE"/>
</svg>
