<svg width="66" height="66" viewBox="0 0 66 66" fill="none" xmlns="http://www.w3.org/2000/svg">
<path d="M37.8689 66C37.8689 45.0856 20.9144 28.1311 0 28.1311V38.0688C15.426 38.0688 27.9312 50.574 27.9312 66H37.8689Z" fill="#242F68"/>
<path d="M28.1311 0C28.1311 20.9144 45.0856 37.8689 66 37.8689V27.9312C50.574 27.9312 38.0688 15.426 38.0688 0H28.1311Z" fill="#242F68"/>
<path d="M28.1311 66C28.1311 45.0856 45.0856 28.1311 66 28.1311V38.0688C50.574 38.0688 38.0688 50.574 38.0688 66H28.1311Z" fill="#242F68"/>
<path d="M37.8689 0C37.8689 20.9144 20.9144 37.8689 0 37.8689V27.9312C15.426 27.9312 27.9312 15.426 27.9312 0H37.8689Z" fill="#9BA8DE"/>
</svg>
